<svg xmlns="http://www.w3.org/2000/svg" fill="none" viewBox="0 0 379 78" height="78" width="379">
<path fill="black" d="M36.0107 46.0152C36.0107 51.1186 33.4735 51.8428 32.3233 52.0281H26.6909V41.2486H31.9512C34.3869 41.4676 36.0107 43.3034 36.0107 45.8467C36.0107 45.8804 36.0107 46.0152 36.0107 46.0152ZM26.6909 21.4244H32.3064C31.5114 22.856 29.9046 25.2309 28.2808 27.3194L28.247 27.3699C28.247 27.3699 27.2829 28.6837 26.6909 29.5259V21.4412V21.4244ZM79.8527 43.8761H85.0792L97.6635 25.652H79.8696C79.8696 22.9065 79.8865 21.2728 79.9034 18.5442H97.4436L111.466 0.303223H63.9701L54.4642 13.1713C53.0603 6.41724 43.2162 -0.0504807 31.2239 0.404281H31.3254H9.50587L0 13.1544V76.1473H27.1814C41.8799 75.7936 49.3223 67.8606 54.4642 59.5906V76.1473H92.8767L107.491 53.8303H79.8527V43.8761Z"></path>
<path fill="#FFB500" d="M22.8167 17.5505H33.3544C35.6547 17.719 36.6527 18.6959 36.6527 20.9865C36.4835 23.1256 31.3923 29.6775 31.3923 29.6775L25.7937 37.3748H32.2042C36.788 37.7116 40.0017 41.3834 39.9172 46.0152C39.9172 50.6471 38.0228 55.1441 32.644 55.8852H22.8337V17.5505H22.8167ZM43.8751 26.0731C47.0043 23.7825 49.4399 21.2223 48.9325 14.6704C48.5773 10.1396 42.5051 3.84032 31.3754 4.27824C31.257 4.27824 11.4672 4.27824 11.4672 4.27824L3.90649 14.4346V72.2735H27.113C41.7101 71.9198 48.0022 63.094 52.2816 55.7337C55.4107 50.327 56.6624 31.1934 43.892 26.0731"></path>
<path fill="#FFB500" d="M95.5322 14.6534L103.567 4.19385H65.9321L58.3545 14.4344V72.2733H90.7793L100.319 57.6873H75.9623V40.0021H83.0495L90.2888 29.5089H75.9623L76.03 14.6534H95.5322Z"></path>
<path fill="black" d="M132.066 0.303223H128.159V76.1473H132.066V0.303223Z"></path>
<g clip-path="url(#clip0_84_1174)">
<path fill="#CEA348" d="M192.683 75.9762C192.683 75.9762 190.146 73.4213 185.649 73.4213C181.153 73.4213 167.283 77.9969 167.283 77.9969C167.283 77.9969 171.936 71.3298 169.617 69.1032C167.402 66.9763 163.095 63.8262 158.923 60.7211C152.378 55.8495 146 51.0198 146 51.0198C146 51.0198 148.11 50.447 150.336 49.5236C152.902 48.4617 151.591 46.5665 151.225 44.6906C150.772 42.3964 147.516 32.0226 147.516 32.0226C147.516 32.0226 158.852 35.6232 161.162 35.0504C163.474 34.4777 165.192 27.6433 165.192 27.6433C165.192 27.6433 172.884 38.281 176.798 40.4626C177.434 40.8133 178.863 40.7521 178.863 39.1562C178.863 36.4404 177.412 30.8417 176.124 25.555C174.592 19.2548 173.381 13.4018 173.381 13.4018C173.381 13.4018 177.614 16.3846 180.305 17.6717C181.047 18.0288 182.239 18.3023 183.324 17.2598C186.876 13.8555 192.689 0.296143 192.689 0.296143L192.683 75.9762Z" clip-rule="evenodd" fill-rule="evenodd"></path>
<path fill="#CEA348" d="M199.928 69.8367C199.928 70.8664 200.313 71.6643 201.087 72.2307C201.858 72.797 202.937 73.0801 204.318 73.0801C207.192 73.0801 208.628 71.999 208.628 69.8399C208.628 68.9325 208.4 67.8353 207.95 66.545H210.243C210.683 67.6036 210.905 68.7877 210.905 70.0941C210.905 71.9732 210.336 73.4083 209.199 74.4026C208.063 75.3969 206.431 75.8956 204.302 75.8956C202.963 75.8956 201.787 75.6511 200.782 75.162C199.774 74.6729 199.003 73.9714 198.463 73.0576C197.927 72.1406 197.657 71.0691 197.657 69.8367C197.657 68.6043 197.959 67.3237 198.566 66.0559L200.788 66.9376C200.557 67.4202 200.358 67.9061 200.188 68.3952C200.018 68.8843 199.931 69.3637 199.931 69.8335"></path>
<path fill="#CEA348" d="M210.725 55.5565L207.658 56.4929V61.2004L210.725 62.1367V65.0873L197.786 60.5311V57.1847L210.725 52.6091V55.5598V55.5565ZM205.368 57.1461C202.587 58.0116 201.016 58.4975 200.654 58.6101C200.291 58.7195 200.002 58.7967 199.79 58.8418C200.541 59.0381 202.401 59.5915 205.368 60.5118V57.1461Z"></path>
<path fill="#CEA348" d="M210.725 39.5325V43.0108L200.975 48.6289V48.7093C202.696 48.5967 203.923 48.542 204.658 48.542H210.722V50.9874H197.834V47.5349L207.485 41.9264V41.8653C205.811 41.9522 204.626 41.9972 203.933 41.9972H197.834V39.5325H210.722H210.725Z"></path>
<path fill="#CEA348" d="M210.725 28.38L207.658 29.3164V34.0238L210.725 34.9602V37.9108L197.786 33.3546V30.0082L210.725 25.4326V28.3832V28.38ZM205.368 29.9696C202.587 30.8351 201.016 31.3242 200.654 31.4304C200.291 31.5398 200.002 31.617 199.79 31.6653C200.541 31.8583 202.401 32.415 205.368 33.3353V29.9696Z"></path>
<path fill="#CEA348" d="M204.161 13.0991C206.283 13.0991 207.908 13.704 209.036 14.9139C210.163 16.1237 210.728 17.871 210.728 20.1555V23.8108H197.84V19.7565C197.84 17.6489 198.396 16.0111 199.507 14.8463C200.618 13.6815 202.169 13.0991 204.161 13.0991ZM204.231 15.9436C201.463 15.9436 200.079 17.1695 200.079 19.6182V21.0758H208.47V19.9013C208.47 17.2628 207.057 15.9436 204.231 15.9436Z"></path>
<path fill="#CEA348" d="M210.725 3.24676L207.658 4.18311V8.89059L210.725 9.82694V12.7776L197.786 8.22131V4.87491L210.725 0.296143V3.24676ZM205.368 4.8363C202.587 5.70186 201.016 6.19095 200.654 6.29713C200.291 6.40653 200.002 6.48376 199.79 6.53202C200.541 6.72509 202.401 7.28175 205.368 8.202V4.8363Z"></path>
<path fill="black" d="M217.626 0.296143H224.04C226.962 0.296143 229.082 0.711225 230.402 1.54461C231.722 2.37799 232.38 3.70368 232.38 5.51845C232.38 6.75083 232.091 7.7644 231.513 8.55273C230.935 9.34428 230.167 9.81728 229.21 9.97817V10.1197C230.517 10.4126 231.458 10.9563 232.037 11.7576C232.615 12.5588 232.904 13.6206 232.904 14.9495C232.904 16.8318 232.226 18.2991 230.868 19.3545C229.509 20.4099 227.666 20.9344 225.337 20.9344H217.63V0.296143H217.626ZM221.994 8.47229H224.531C225.716 8.47229 226.574 8.28888 227.104 7.92207C227.634 7.55525 227.9 6.94711 227.9 6.10085C227.9 5.3093 227.611 4.74299 227.033 4.3987C226.455 4.0544 225.543 3.88387 224.29 3.88387H221.994V8.47229ZM221.994 11.9442V17.3242H224.84C226.041 17.3242 226.93 17.0925 227.502 16.6324C228.074 16.1722 228.363 15.4643 228.363 14.5151C228.363 12.8033 227.142 11.9442 224.698 11.9442H221.994Z"></path>
<path fill="black" d="M247.516 20.9376H235.649V0.296143H247.516V3.88387H240.017V8.41437H246.992V12.0021H240.017V17.3242H247.516V20.9376Z"></path>
<path fill="black" d="M263.693 15.2068C263.693 17.0698 263.025 18.5403 261.685 19.6118C260.346 20.6865 258.483 21.2207 256.097 21.2207C253.897 21.2207 251.954 20.8056 250.262 19.9786V15.9115C251.653 16.5325 252.828 16.9701 253.791 17.2243C254.755 17.4785 255.635 17.604 256.434 17.604C257.392 17.604 258.127 17.4206 258.641 17.0538C259.155 16.6869 259.408 16.1399 259.408 15.4159C259.408 15.0105 259.296 14.6501 259.071 14.3348C258.846 14.0195 258.516 13.717 258.079 13.4242C257.642 13.1314 256.752 12.668 255.407 12.0277C254.148 11.4357 253.204 10.8661 252.574 10.3191C251.945 9.77212 251.444 9.13824 251.065 8.41426C250.689 7.69028 250.503 6.84081 250.503 5.87228C250.503 4.04464 251.119 2.60955 252.356 1.56701C253.592 0.521266 255.298 0 257.478 0C258.551 0 259.572 0.128708 260.542 0.379687C261.515 0.633885 262.53 0.991048 263.593 1.45118L262.183 4.85549C261.085 4.40502 260.176 4.08968 259.457 3.90949C258.737 3.73252 258.031 3.64242 257.337 3.64242C256.512 3.64242 255.876 3.83549 255.436 4.22161C254.996 4.60773 254.774 5.10969 254.774 5.73392C254.774 6.12004 254.864 6.45468 255.041 6.74428C255.221 7.03065 255.503 7.30737 255.895 7.57766C256.284 7.84473 257.208 8.32738 258.663 9.02562C260.59 9.94909 261.91 10.8726 262.623 11.7993C263.336 12.726 263.696 13.8618 263.696 15.21"></path>
<path fill="black" d="M275.029 20.9376H270.658V3.93857H265.064V0.296143H280.624V3.93857H275.029V20.9376Z"></path>
<path fill="black" d="M226.349 48.4615L221.387 32.2669H221.262C221.442 35.5618 221.528 37.7595 221.528 38.86V48.4615H217.626V27.8201H223.574L228.449 43.6061H228.533L233.703 27.8201H239.651V48.4615H235.579V38.6926C235.579 38.2325 235.585 37.6984 235.601 37.0967C235.617 36.495 235.678 34.8958 235.791 32.2959H235.666L230.354 48.4615H226.352H226.349Z"></path>
<path fill="black" d="M257.433 48.4615L255.94 43.5481H248.428L246.935 48.4615H242.227L249.497 27.7332H254.838L262.138 48.4615H257.43H257.433ZM254.896 39.8767C253.515 35.4234 252.738 32.9072 252.564 32.3216C252.391 31.7392 252.266 31.2758 252.192 30.938C251.88 32.1414 250.994 35.121 249.53 39.8767H254.899H254.896Z"></path>
<path fill="black" d="M282.994 48.4615H277.441L268.478 32.8461H268.349C268.529 35.6037 268.616 37.5697 268.616 38.7473V48.4615H264.714V27.8201H270.225L279.172 43.2811H279.271C279.13 40.5975 279.059 38.7023 279.059 37.5922V27.8233H282.99V48.4648L282.994 48.4615Z"></path>
<path fill="black" d="M300.773 48.4615L299.279 43.5481H291.768L290.274 48.4615H285.566L292.837 27.7332H298.178L305.478 48.4615H300.769H300.773ZM298.236 39.8767C296.855 35.4234 296.077 32.9072 295.904 32.3216C295.731 31.7392 295.605 31.2758 295.531 30.938C295.22 32.1414 294.334 35.121 292.869 39.8767H298.239H298.236Z"></path>
<path fill="black" d="M314.56 36.8682H322.733V47.5702C321.41 48.0046 320.16 48.3071 318.991 48.4808C317.822 48.6546 316.628 48.7415 315.404 48.7415C312.295 48.7415 309.919 47.8244 308.281 45.9935C306.64 44.1627 305.821 41.5338 305.821 38.107C305.821 34.6802 306.772 32.1768 308.676 30.3138C310.577 28.4507 313.217 27.5176 316.589 27.5176C318.702 27.5176 320.742 27.9423 322.704 28.7886L321.252 32.2894C319.749 31.5365 318.185 31.16 316.56 31.16C314.672 31.16 313.159 31.7939 312.022 33.0649C310.886 34.3359 310.317 36.0445 310.317 38.1907C310.317 40.3369 310.776 42.142 311.692 43.3229C312.607 44.5038 313.94 45.0958 315.687 45.0958C316.599 45.0958 317.524 45.0025 318.465 44.8127V40.5074H314.56V36.865V36.8682Z"></path>
<path fill="black" d="M358.904 37.9429C358.904 41.3408 357.938 43.9439 356.007 45.7523C354.077 47.5606 351.29 48.4615 347.645 48.4615H341.809V27.8201H348.277C351.64 27.8201 354.251 28.7114 356.113 30.4875C357.973 32.2669 358.904 34.751 358.904 37.9429ZM354.366 38.0555C354.366 33.6216 352.411 31.4046 348.505 31.4046H346.18V44.8449H348.056C352.266 44.8449 354.37 42.5796 354.37 38.0523"></path>
<path fill="black" d="M226.436 58.6873C224.791 58.6873 223.52 59.3051 222.617 60.544C221.715 61.7828 221.265 63.5074 221.265 65.718C221.265 70.3225 222.99 72.6232 226.436 72.6232C227.884 72.6232 229.634 72.2596 231.693 71.5356V75.207C230 75.9116 228.112 76.2656 226.028 76.2656C223.032 76.2656 220.738 75.355 219.152 73.5338C217.565 71.7125 216.769 69.0966 216.769 65.689C216.769 63.5428 217.158 61.6637 217.938 60.0484C218.718 58.4331 219.839 57.1943 221.297 56.3352C222.759 55.4729 224.47 55.0449 226.432 55.0449C228.395 55.0449 230.444 55.5308 232.464 56.4993L231.054 60.0581C230.283 59.6913 229.509 59.3695 228.729 59.0992C227.948 58.8257 227.184 58.6906 226.432 58.6906"></path>
<path fill="black" d="M253.457 65.6345C253.457 69.0517 252.613 71.6773 250.92 73.5114C249.231 75.3455 246.806 76.2657 243.649 76.2657C240.492 76.2657 238.068 75.3487 236.378 73.5114C234.689 71.6773 233.841 69.042 233.841 65.6055C233.841 62.169 234.689 59.5466 236.385 57.7351C238.081 55.9235 240.512 55.0161 243.678 55.0161C246.845 55.0161 249.266 55.9299 250.943 57.7544C252.619 59.582 253.457 62.2076 253.457 65.6345ZM238.421 65.6345C238.421 67.9416 238.858 69.6759 239.731 70.8439C240.605 72.0119 241.912 72.5943 243.649 72.5943C247.134 72.5943 248.878 70.2744 248.878 65.6345C248.878 60.9946 247.143 58.6585 243.678 58.6585C241.941 58.6585 240.63 59.2442 239.747 60.4154C238.864 61.5866 238.424 63.3274 238.424 65.6313"></path>
<path fill="black" d="M264.926 75.9857L259.964 59.7911H259.835C260.015 63.086 260.102 65.2837 260.102 66.3841V75.9857H256.2V55.3442H262.148L267.023 71.1302H267.106L272.277 55.3442H278.225V75.9857H274.152V66.2168C274.152 65.7567 274.159 65.2225 274.175 64.6208C274.191 64.0191 274.252 62.4167 274.364 59.82H274.239L268.927 75.9857H264.926Z"></path>
<path fill="black" d="M296.925 61.7797C296.925 63.9999 296.232 65.6988 294.847 66.8765C293.463 68.0542 291.491 68.6398 288.935 68.6398H287.06V75.9825H282.692V55.3411H289.272C291.771 55.3411 293.672 55.8816 294.973 56.9563C296.273 58.0343 296.925 59.6431 296.925 61.7797ZM287.063 65.0553H288.502C289.844 65.0553 290.849 64.7882 291.517 64.2573C292.185 63.7264 292.516 62.9509 292.516 61.9341C292.516 60.9173 292.237 60.1515 291.678 59.6592C291.119 59.1701 290.242 58.9256 289.051 58.9256H287.063V65.052V65.0553Z"></path>
<path fill="black" d="M311.101 75.9857L309.607 71.0723H302.096L300.602 75.9857H295.894L303.165 55.2573H308.506L315.806 75.9857H311.098H311.101ZM308.564 67.4009C307.183 62.9476 306.406 60.4314 306.232 59.8458C306.059 59.2634 305.933 58.8 305.86 58.4621C305.548 59.6656 304.662 62.6451 303.197 67.4009H308.567H308.564Z"></path>
<path fill="black" d="M336.661 75.9857H331.109L322.145 60.3703H322.017C322.197 63.1278 322.283 65.0938 322.283 66.2715V75.9857H318.381V55.3442H323.892L332.84 70.8052H332.939C332.798 68.1217 332.727 66.2265 332.727 65.1164V55.3442H336.658V75.9857H336.661Z"></path>
<path fill="black" d="M345.493 55.3411H341.125V75.9825H345.493V55.3411Z"></path>
<path fill="black" d="M361.82 75.9858H349.957V55.3411H361.82V58.9288H354.325V63.4625H361.3V67.047H354.325V72.3691H361.82V75.9858Z"></path>
<path fill="black" d="M378 70.2518C378 72.1148 377.332 73.5853 375.993 74.6568C374.654 75.7283 372.791 76.2656 370.405 76.2656C368.208 76.2656 366.262 75.8505 364.569 75.0236V70.9564C365.96 71.5775 367.135 72.0151 368.099 72.2693C369.062 72.5235 369.942 72.6489 370.742 72.6489C371.699 72.6489 372.434 72.4655 372.948 72.0987C373.459 71.7319 373.716 71.1849 373.716 70.4609C373.716 70.0555 373.603 69.6951 373.379 69.3798C373.154 69.0644 372.823 68.762 372.386 68.4692C371.949 68.1764 371.06 67.7098 369.714 67.0727C368.455 66.4806 367.511 65.9111 366.882 65.3641C366.252 64.8171 365.748 64.1832 365.372 63.4592C364.996 62.7352 364.807 61.8858 364.807 60.9173C364.807 59.0896 365.424 57.6545 366.66 56.6088C367.896 55.563 369.602 55.0417 371.782 55.0417C372.855 55.0417 373.876 55.1672 374.846 55.4214C375.819 55.6756 376.834 56.0328 377.897 56.4929L376.487 59.8972C375.389 59.4468 374.48 59.1314 373.761 58.9512C373.041 58.7711 372.335 58.6842 371.641 58.6842C370.816 58.6842 370.18 58.8772 369.74 59.2634C369.297 59.6495 369.078 60.1514 369.078 60.7757C369.078 61.1618 369.168 61.4964 369.345 61.786C369.525 62.0724 369.807 62.3523 370.199 62.6194C370.588 62.8865 371.513 63.3691 372.967 64.0674C374.894 64.9908 376.214 65.9143 376.927 66.841C377.64 67.7677 378 68.9036 378 70.2518Z"></path>
<path fill="black" d="M338.203 48.4615H326.34V27.8201H338.203V31.4046H330.707V35.9383H337.683V39.5228H330.707V44.8481H338.203V48.4615Z"></path>
</g>
<defs>
<clipPath id="clip0_84_1174">
<rect transform="translate(146)" fill="white" height="78" width="232"></rect>
</clipPath>
</defs>
</svg>
